<?xml version="1.0" standalone="no"?>
<!DOCTYPE svg PUBLIC "-//W3C//DTD SVG 20010904//EN"
 "http://www.w3.org/TR/2001/REC-SVG-20010904/DTD/svg10.dtd">
<svg version="1.0" xmlns="http://www.w3.org/2000/svg"
 width="751.000000pt" height="751.000000pt" viewBox="0 0 751.000000 751.000000"
 preserveAspectRatio="xMidYMid meet">
<metadata>
Created by potrace 1.11, written by Peter Selinger 2001-2013
</metadata>
<g transform="translate(0.000000,751.000000) scale(0.100000,-0.100000)"
fill="#000000" stroke="none">
<path d="M2129 6571 l-1624 -938 0 -1878 0 -1878 1600 -924 c880 -508 1612
-930 1626 -938 25 -13 81 18 1650 924 l1624 937 0 1879 0 1879 -1590 918
c-874 505 -1606 927 -1626 938 l-35 18 -1625 -937z m3160 -181 l1511 -873 0
-1762 0 -1762 -1509 -872 c-831 -479 -1517 -874 -1525 -877 -10 -4 -588 324
-1536 872 l-1520 877 0 1762 0 1762 1518 876 c834 483 1524 875 1533 873 9 -2
696 -396 1528 -876z"/>
<path d="M3210 5055 l0 -535 95 0 95 0 0 535 0 535 -95 0 -95 0 0 -535z"/>
<path d="M4110 4940 l0 -420 95 0 95 0 0 420 0 420 -95 0 -95 0 0 -420z"/>
<path d="M3440 4895 l0 -375 90 0 90 0 0 375 0 375 -90 0 -90 0 0 -375z"/>
<path d="M3890 4865 l0 -345 90 0 90 0 0 345 0 345 -90 0 -90 0 0 -345z"/>
<path d="M3660 4765 l0 -245 95 0 95 0 0 245 0 245 -95 0 -95 0 0 -245z"/>
<path d="M2095 4083 c-11 -76 -20 -90 -62 -100 -23 -5 -39 -15 -41 -26 -3 -14
4 -17 42 -17 l46 0 0 -222 c0 -199 3 -228 20 -266 23 -50 64 -72 137 -72 67 0
93 9 93 31 0 17 -8 19 -64 19 -125 0 -126 3 -126 290 l0 220 85 0 c84 0 85 0
85 25 0 25 -1 25 -85 25 l-85 0 0 70 c0 62 -2 70 -19 70 -15 0 -20 -10 -26
-47z"/>
<path d="M3649 4063 c-14 -65 -15 -67 -54 -77 -24 -7 -41 -18 -43 -29 -3 -14
4 -17 42 -17 l46 0 0 -225 c0 -252 6 -280 62 -315 23 -14 50 -20 90 -20 69 0
88 7 88 31 0 17 -8 19 -64 19 -116 0 -125 23 -126 313 l0 197 90 0 c89 0 90 0
90 25 0 25 -1 25 -90 25 l-90 0 0 70 c0 94 -22 96 -41 3z"/>
<path d="M2608 3990 c-122 -37 -197 -174 -185 -337 13 -178 112 -273 282 -272
101 0 179 24 183 57 4 26 -3 27 -76 6 -81 -24 -189 -15 -240 19 -47 30 -80 93
-89 166 l-6 51 218 0 218 0 -6 73 c-12 157 -98 249 -232 246 -22 0 -52 -4 -67
-9z m135 -54 c18 -7 42 -24 54 -37 26 -29 53 -100 53 -140 l0 -29 -185 0 -185
0 6 28 c13 62 36 110 68 141 51 49 126 64 189 37z"/>
<path d="M4833 3981 c-24 -11 -55 -37 -72 -61 l-30 -41 -3 53 c-3 46 -6 53
-25 56 l-23 3 0 -300 0 -301 25 0 25 0 0 169 c0 92 5 192 10 222 22 113 101
178 201 165 47 -6 49 -6 49 18 0 13 -7 27 -16 30 -31 12 -100 5 -141 -13z"/>
<path d="M5222 3984 c-86 -23 -101 -34 -83 -62 6 -11 22 -9 80 8 138 42 218
11 240 -92 21 -98 25 -94 -91 -101 -173 -11 -262 -52 -289 -134 -15 -46 -6
-118 18 -151 38 -51 70 -66 143 -70 61 -4 78 -1 125 22 30 15 63 38 74 52 25
31 31 30 31 -5 0 -42 10 -61 31 -61 18 0 19 11 19 223 0 130 -5 238 -11 262
-29 104 -144 148 -287 109z m236 -367 c-3 -63 -8 -80 -32 -112 -41 -53 -103
-78 -179 -73 -52 4 -64 9 -88 36 -22 24 -29 42 -29 73 0 102 75 145 264 148
l68 1 -4 -73z"/>
<path d="M3023 3977 c2 -6 48 -72 101 -146 l96 -133 -32 -46 c-18 -26 -65 -93
-105 -150 -40 -56 -73 -105 -73 -107 0 -3 13 -5 28 -5 25 0 39 15 116 125 48
69 91 127 95 130 5 2 50 -54 100 -125 84 -119 94 -130 123 -130 l30 0 -18 28
c-10 15 -57 82 -106 150 -48 67 -88 125 -88 128 0 6 159 237 193 282 7 9 2 12
-21 12 -28 0 -38 -11 -113 -117 -45 -65 -85 -122 -89 -126 -5 -5 -48 48 -96
117 -78 111 -92 126 -118 126 -18 0 -27 -4 -23 -13z"/>
<path d="M4010 3763 c0 -126 5 -244 10 -263 11 -41 61 -94 103 -109 16 -6 58
-11 95 -11 76 0 158 32 185 71 16 22 16 22 23 -19 6 -36 10 -42 30 -42 l24 0
0 300 0 300 -29 0 -30 0 -3 -217 c-3 -245 -10 -274 -75 -314 -49 -31 -157 -38
-207 -14 -66 32 -71 51 -74 313 l-3 232 -25 0 -24 0 0 -227z"/>
<path d="M3210 2410 l0 -530 510 0 c333 0 510 3 510 10 0 7 -173 10 -500 10
l-500 0 0 520 c0 340 -3 520 -10 520 -7 0 -10 -183 -10 -530z"/>
<path d="M3674 2796 c-9 -24 4 -48 23 -44 12 2 18 12 18 28 0 29 -32 41 -41
16z"/>
<path d="M3937 2763 c-12 -12 -7 -41 8 -47 22 -8 49 23 34 40 -12 15 -31 18
-42 7z"/>
<path d="M3560 2685 c-18 -21 -5 -47 22 -43 26 3 37 36 16 49 -18 12 -24 11
-38 -6z"/>
<path d="M3793 2693 c-18 -6 -16 -42 2 -49 8 -4 22 -1 30 6 24 20 -1 54 -32
43z"/>
<path d="M3670 2555 c0 -22 4 -26 23 -23 14 2 22 10 22 23 0 13 -8 21 -22 23
-19 3 -23 -1 -23 -23z"/>
<path d="M3894 2565 c-4 -9 -2 -21 4 -27 16 -16 47 -5 47 17 0 26 -42 34 -51
10z"/>
<path d="M4007 2567 c-8 -21 8 -39 29 -35 27 5 25 42 -2 46 -12 2 -24 -3 -27
-11z"/>
<path d="M3527 2464 c-12 -12 -8 -42 6 -47 21 -8 39 8 35 29 -3 19 -29 30 -41
18z"/>
<path d="M3787 2463 c-13 -12 -7 -41 10 -47 23 -9 47 22 32 41 -12 14 -32 17
-42 6z"/>
<path d="M3381 2390 c-19 -11 -9 -45 14 -45 13 0 21 8 23 21 3 23 -17 37 -37
24z"/>
<path d="M3940 2385 c-15 -18 -6 -45 13 -45 8 0 20 6 26 14 9 11 8 18 -4 30
-20 20 -20 20 -35 1z"/>
<path d="M3674 2346 c-9 -24 4 -48 23 -44 12 2 18 12 18 28 0 29 -32 41 -41
16z"/>
<path d="M3857 2267 c-8 -21 8 -39 29 -35 27 5 25 42 -2 46 -12 2 -24 -3 -27
-11z"/>
<path d="M3374 2196 c-9 -24 4 -48 23 -44 12 2 18 12 18 28 0 29 -32 41 -41
16z"/>
<path d="M3524 2196 c-9 -24 4 -48 23 -44 12 2 18 12 18 28 0 29 -32 41 -41
16z"/>
<path d="M3670 2106 c0 -21 5 -26 26 -26 21 0 25 4 22 23 -2 14 -11 23 -25 25
-19 3 -23 -1 -23 -22z"/>
<path d="M3524 2046 c-9 -24 4 -48 23 -44 12 2 18 12 18 28 0 29 -32 41 -41
16z"/>
</g>
</svg>
