<?xml version="1.0" standalone="no"?>
<!DOCTYPE svg PUBLIC "-//W3C//DTD SVG 20010904//EN"
 "http://www.w3.org/TR/2001/REC-SVG-20010904/DTD/svg10.dtd">
<svg version="1.0" xmlns="http://www.w3.org/2000/svg"
 width="300.000000pt" height="300.000000pt" viewBox="0 0 300.000000 300.000000"
 preserveAspectRatio="xMidYMid meet">
<metadata>
Created by potrace 1.11, written by Peter Selinger 2001-2013
</metadata>
<g transform="translate(0.000000,300.000000) scale(0.100000,-0.100000)"
fill="#000000" stroke="none">
<path d="M862 2588 l-622 -361 0 -727 0 -727 622 -359 c342 -197 629 -359 638
-359 9 0 296 162 638 359 l622 359 0 727 0 727 -622 359 c-341 197 -628 360
-637 361 -9 1 -296 -161 -639 -359z m1234 -75 l584 -337 0 -676 0 -676 -584
-337 c-321 -185 -589 -337 -596 -337 -7 0 -275 152 -596 337 l-584 337 0 676
0 676 583 337 c320 185 588 337 596 337 8 0 276 -152 597 -337z"/>
<path d="M1415 1953 c-71 -15 -65 -4 -65 -108 l0 -95 -70 0 -70 0 0 -60 0 -60
70 0 70 0 0 -185 c0 -263 17 -327 102 -375 58 -33 207 -39 283 -13 l50 18 -3
50 c-3 75 -5 77 -49 59 -45 -19 -160 -22 -191 -5 -44 24 -52 65 -52 266 l0
185 145 0 145 0 0 60 0 60 -145 0 -145 0 0 105 0 105 -27 -1 c-16 -1 -37 -3
-48 -6z"/>
</g>
</svg>
